:version 1.10
:name ASF
:units
  mass 1
  length 1
  angle deg
:documentation
  ASF file generated by Kaydara
:root
  axis xyz
  order  tx ty tz rx ry rz
  position 0 0 0
  orientation 0 0 0
:bonedata
  begin
    id 1
    name RightUpLegDummy
    direction -0.65628 -0.754516 0.00165102
    length 4.76918
    axis 0 0 0 xyz
  end
  begin
    id 2
    name RightUpLeg
    direction -0.145584 -0.923362 0.355256
    length 17.9961
    axis -24.7611 -13.1006 1.78531 xyz
    dof rx ry rz
  end
  begin
    id 3
    name RightLeg
    direction 0.263379 0.172355 -0.949171
    length 13.3386
    axis 89.6202 -21.1929 12.3855 xyz
    dof rx ry rz
  end
  begin
    id 4
    name RightFoot
    direction 0.224283 -0.968777 -0.105675
    length 5.86697
    axis 56.995 -39.6905 17.3365 xyz
    dof rx ry rz
  end
  begin
    id 5
    name RightToes
    direction -0.0806345 -0.9037 0.420506
    length 4.75197
    axis 146.825 -39.7828 17.6019 xyz
    dof rx ry rz
  end
  begin
    id 6
    name SpineDummy
    direction -3.39852e-014 1 9.33296e-014
    length 8.13779
    axis 0 0 0 xyz
  end
  begin
    id 7
    name Spine
    direction -0.156609 0.733703 0.661176
    length 7.14978
    axis 41.2365 5.68757 17.0844 xyz
    dof rx ry rz
  end
  begin
    id 8
    name Spine1
    direction 0 0 0
    length 0
    axis 42.8809 47.8308 -3.36039 xyz
    dof rx ry rz
  end
  begin
    id 9
    name HEadDummy
    direction 0.546431 0.701947 0.456819
    length 3.55512
    axis 42.8809 47.8308 -3.36039 xyz
  end
  begin
    id 10
    name HEad
    direction 0.23444 0.828559 0.508457
    length 7.35827
    axis 51.1864 49.2662 27.4903 xyz
    dof rx ry rz
  end
  begin
    id 11
    name LeftShoulder1Dummy
    direction 0.431183 0.475873 -0.766568
    length 2.49352
    axis 42.8809 47.8308 -3.36039 xyz
  end
  begin
    id 12
    name LeftShoulder1
    direction 0.268187 -0.383402 -0.883786
    length 4.48604
    axis -119.517 0.106469 35.1736 xyz
    dof rx ry rz
  end
  begin
    id 13
    name LeftArm
    direction 0.380567 -0.703221 -0.600541
    length 10.1142
    axis -5.41825 36.2925 7.8293 xyz
    dof rx ry rz
  end
  begin
    id 14
    name LeftForeArm
    direction 0.541071 -0.732356 -0.413396
    length 9.39839
    axis 4.65387 33.7604 7.81644 xyz
    dof rx ry rz
  end
  begin
    id 15
    name LeftHand
    direction 0.847511 -0.389379 -0.360707
    length 3.66142
    axis 7.65593 21.1436 -24.6758 xyz
    dof rx ry rz
  end
  begin
    id 16
    name RightShoulderDummy
    direction -0.692546 0.541855 0.476208
    length 2.49352
    axis 42.8809 47.8308 -3.36039 xyz
  end
  begin
    id 17
    name RightShoulder
    direction -0.870808 -0.316653 0.376065
    length 4.48602
    axis 141.571 51.133 -100.254 xyz
    dof rx ry rz
  end
  begin
    id 18
    name RightArm
    direction 0.366897 -0.87275 0.322015
    length 10.1142
    axis 92.3258 71.2036 138.917 xyz
    dof rx ry rz
  end
  begin
    id 19
    name RightForeArm
    direction 0.702487 -0.694568 0.155197
    length 9.39835
    axis 153.863 41.5092 -176.604 xyz
    dof rx ry rz
  end
  begin
    id 20
    name RightHand
    direction 0.79502 -0.601276 0.0800636
    length 3.66142
    axis 154.247 4.59222 142.9 xyz
    dof rx ry rz
  end
  begin
    id 21
    name LeftUpLegDummy
    direction 0.65628 -0.754516 0.00165102
    length 4.76919
    axis 0 0 0 xyz
  end
  begin
    id 22
    name LeftUpLeg
    direction -0.1277 -0.689368 0.713067
    length 17.9961
    axis -48.3385 -17.8675 0.791927 xyz
    dof rx ry rz
  end
  begin
    id 23
    name LeftLeg
    direction 0.109849 -0.991246 -0.0732378
    length 13.3386
    axis -2.05791 -7.30784 1.72042 xyz
    dof rx ry rz
  end
  begin
    id 24
    name LeftFoot
    direction 0.0448355 -0.272614 0.961078
    length 5.86697
    axis -18.7733 -7.89606 10.2113 xyz
    dof rx ry rz
  end
  begin
    id 25
    name LeftToes
    direction -0.18506 0.293668 0.937823
    length 4.75197
    axis 71.2267 -7.89606 10.2113 xyz
    dof rx ry rz
  end
:hierarchy
  begin
    root RightUpLegDummy SpineDummy LeftUpLegDummy
    RightUpLegDummy RightUpLeg
    RightUpLeg RightLeg
    RightLeg RightFoot
    RightFoot RightToes
    SpineDummy Spine
    Spine Spine1
    Spine1 HEadDummy LeftShoulder1Dummy RightShoulderDummy
    HEadDummy HEad
    LeftShoulder1Dummy LeftShoulder1
    LeftShoulder1 LeftArm
    LeftArm LeftForeArm
    LeftForeArm LeftHand
    RightShoulderDummy RightShoulder
    RightShoulder RightArm
    RightArm RightForeArm
    RightForeArm RightHand
    LeftUpLegDummy LeftUpLeg
    LeftUpLeg LeftLeg
    LeftLeg LeftFoot
    LeftFoot LeftToes
  end

:SAMPLES-PER-SECOND 30
:FULLY-SPECIFIED
:DEGREES
524
root  -24.8452 16.8917 -21.7724 166.38 -25.9531 76.6218
RightUpLeg  -14.2598 -16.23 -31.9618
RightLeg  -83.1941 -12.1225 -2.5532
RightFoot  10.5361 16.7463 -36.7657
RightToes  -1.27222e-014 -6.36111e-015 6.36111e-015
Spine  -11.5154 -18.9526 -27.4534
Spine1  21.6329 -4.48897 18.3244
HEad  36.3463 -43.1048 -18.8075
LeftShoulder1  6.36111e-015 -1.33558e-015 6.49777e-015
LeftArm  32.7134 22.3356 3.17651
LeftForeArm  -74.5375 -41.1672 25.5906
LeftHand  2.3642 6.98653 -2.32014
RightShoulder  -4.77083e-015 -6.36111e-015 -3.18055e-015
RightArm  97.7545 -31.8676 -98.0482
RightForeArm  -5.76229 -18.0359 -5.07203
RightHand  24.6602 -8.62957 -81.1823
LeftUpLeg  -19.5552 15.8175 52.6493
LeftLeg  -38.258 5.29281 -8.4515
LeftFoot  -3.96058 1.34889 -5.09827
LeftToes  1.27222e-014 1.09105e-011 6.96064e-012
525
root  -23.9671 18.0474 -20.3873 177.942 -14.6467 72.284
RightUpLeg  -15.5513 -12.0512 -32.1939
RightLeg  -76.3152 -8.91306 -12.5105
RightFoot  12.0179 -3.74579 0.77493
RightToes  -1.27222e-014 -6.36111e-015 6.36111e-015
Spine  -12.534 -18.9943 -27.5217
Spine1  19.5849 -5.18657 19.5317
HEad  37.5475 -46.2697 -20.6293
LeftShoulder1  6.36111e-015 -1.33558e-015 6.49777e-015
LeftArm  22.0789 24.043 6.20594
LeftForeArm  -93.2739 -42.07 48.7449
LeftHand  2.98257 8.20199 -1.25745
RightShoulder  -4.77083e-015 -6.36111e-015 -3.18055e-015
RightArm  91.6145 -27.2391 -101.47
RightForeArm  -8.62957 -18.2607 -6.58103
RightHand  26.149 -9.99613 -81.1172
LeftUpLeg  -15.0421 14.8267 53.9101
LeftLeg  -38.9745 5.82638 -8.63976
LeftFoot  -2.66838 1.49839 -5.44014
LeftToes  1.27222e-014 1.09105e-011 6.96064e-012
526
root  -22.7584 19.4244 -19.2037 -172.502 -2.82855 71.449
RightUpLeg  -16.1601 -10.9211 -31.6119
RightLeg  -74.1361 -8.78851 -11.995
RightFoot  10.621 -3.42349 0.932633
RightToes  -1.27222e-014 -6.36111e-015 6.36111e-015
Spine  -12.8731 -18.4197 -26.3589
Spine1  17.6584 -5.39643 19.6174
HEad  39.1548 -52.1926 -22.1794
LeftShoulder1  6.36111e-015 -1.33558e-015 6.49777e-015
LeftArm  11.0641 20.5785 2.1971
LeftForeArm  -107.483 -35.9806 68.5796
LeftHand  4.45138 10.9327 1.0435
RightShoulder  -4.77083e-015 -6.36111e-015 -3.18055e-015
RightArm  84.3713 -22.6722 -106.679
RightForeArm  -10.8893 -17.2644 -6.89492
RightHand  26.6254 -11.5115 -78.7452
LeftUpLeg  -9.86044 13.5041 54.2707
LeftLeg  -39.6948 5.86869 -8.68322
LeftFoot  -0.58997 1.7882 -6.09715
LeftToes  1.27222e-014 1.09105e-011 6.96064e-012
527
root  -21.1443 21.0975 -18.4492 -162.957 8.94238 74.1905
RightUpLeg  -16.7241 -9.43973 -30.8014
RightLeg  -75.4143 -11.4931 -5.16423
RightFoot  12.9178 0.169788 -6.35834
RightToes  -1.27222e-014 -6.36111e-015 6.36111e-015
Spine  -13.2487 -17.704 -24.0886
Spine1  14.8916 -5.87269 18.7966
HEad  40.733 -59.5424 -24.1039
LeftShoulder1  6.36111e-015 -1.33558e-015 6.49777e-015
LeftArm  4.81939 7.7054 -7.50136
LeftForeArm  -109.416 -31.904 79.3355
LeftHand  5.34406 12.9569 1.45083
RightShoulder  -4.77083e-015 -6.36111e-015 -3.18055e-015
RightArm  76.2135 -20.4555 -110.286
RightForeArm  -12.778 -15.6375 -6.53739
RightHand  26.613 -12.233 -77.188
LeftUpLeg  -4.80474 12.6485 54.3061
LeftLeg  -40.6689 5.16895 -9.26007
LeftFoot  2.61866 2.19047 -6.80439
LeftToes  1.27222e-014 1.09105e-011 6.96064e-012
